M48
;Layer_Color=9474304
;FILE_FORMAT=2:5
INCH,LZ
;TYPE=PLATED
T1F00S00C0.02559
T2F00S00C0.02756
T4F00S00C0.03150
T5F00S00C0.03543
T6F00S00C0.04331
T7F00S00C0.07874
%
T01
X01235Y0392787
Y0412
T02
X01225Y04475
X01305
X01165Y0467815
X02245Y04125
X02325
X0134Y0468815
Y04885
X01165Y04875
T04
X01905Y0351067
X02085Y0351067
Y0397
X01905Y0397
T05
X01435Y03515
Y03615
Y03715
Y03815
Y03915
Y04015
Y04115
Y04215
Y04315
Y04415
Y04515
Y04615
X01735
Y04515
Y04415
Y04315
Y04215
Y04115
Y04015
Y03915
Y03815
Y03715
Y03615
Y03515
Y04715
Y04815
X01435
Y04715
T06
X02315Y03595
Y03695
Y03795
T07
X0105Y03465
X02445
Y0498
X0105
M30
