G04*
G04 #@! TF.GenerationSoftware,Altium Limited,Altium Designer,22.4.2 (48)*
G04*
G04 Layer_Color=8388736*
%FSLAX25Y25*%
%MOIN*%
G70*
G04*
G04 #@! TF.SameCoordinates,58CDF047-041F-4824-80A0-4C5186096447*
G04*
G04*
G04 #@! TF.FilePolarity,Positive*
G04*
G01*
G75*
%ADD10C,0.00394*%
%ADD11C,0.00787*%
%ADD12C,0.00984*%
%ADD13C,0.02362*%
D10*
X123500Y378221D02*
G03*
X123500Y378614I0J197D01*
G01*
D02*
G03*
X123500Y378221I0J-197D01*
G01*
X116229Y399926D02*
X119771Y402287D01*
X116229D02*
X119771Y399926D01*
Y403468D02*
Y404649D01*
Y404059D01*
X116229D01*
X116819Y403468D01*
X181064Y420394D02*
X184606D01*
Y422165D01*
X184016Y422755D01*
X181655D01*
X181064Y422165D01*
Y420394D01*
Y423936D02*
Y425117D01*
Y424526D01*
X184606D01*
Y423936D01*
Y425117D01*
X181655Y429249D02*
X181064Y428659D01*
Y427478D01*
X181655Y426888D01*
X182245D01*
X182835Y427478D01*
Y428659D01*
X183426Y429249D01*
X184016D01*
X184606Y428659D01*
Y427478D01*
X184016Y426888D01*
X184606Y430430D02*
X181064D01*
Y432201D01*
X181655Y432791D01*
X182835D01*
X183426Y432201D01*
Y430430D01*
X181064Y433972D02*
X184606D01*
Y436333D01*
Y437514D02*
X182245D01*
X181064Y438695D01*
X182245Y439876D01*
X184606D01*
X182835D01*
Y437514D01*
X181064Y441056D02*
X181655D01*
X182835Y442237D01*
X181655Y443418D01*
X181064D01*
X182835Y442237D02*
X184606D01*
X197940Y414727D02*
X197607Y414393D01*
Y413727D01*
X197940Y413394D01*
X199273D01*
X199606Y413727D01*
Y414393D01*
X199273Y414727D01*
X198607D01*
Y414060D01*
X199606Y415393D02*
X197607D01*
X199606Y416726D01*
X197607D01*
Y417392D02*
X199606D01*
Y418392D01*
X199273Y418725D01*
X197940D01*
X197607Y418392D01*
Y417392D01*
Y423394D02*
X198940D01*
X199606Y424060D01*
X198940Y424727D01*
X197607D01*
X197940Y426726D02*
X197607Y426393D01*
Y425726D01*
X197940Y425393D01*
X199273D01*
X199606Y425726D01*
Y426393D01*
X199273Y426726D01*
X197940Y428725D02*
X197607Y428392D01*
Y427726D01*
X197940Y427392D01*
X199273D01*
X199606Y427726D01*
Y428392D01*
X199273Y428725D01*
X197940Y434727D02*
X197607Y434393D01*
Y433727D01*
X197940Y433394D01*
X198273D01*
X198607Y433727D01*
Y434393D01*
X198940Y434727D01*
X199273D01*
X199606Y434393D01*
Y433727D01*
X199273Y433394D01*
X197940Y436726D02*
X197607Y436393D01*
Y435726D01*
X197940Y435393D01*
X199273D01*
X199606Y435726D01*
Y436393D01*
X199273Y436726D01*
X197607Y437392D02*
X199606D01*
Y438725D01*
X197940Y444727D02*
X197607Y444393D01*
Y443727D01*
X197940Y443394D01*
X198273D01*
X198607Y443727D01*
Y444393D01*
X198940Y444727D01*
X199273D01*
X199606Y444393D01*
Y443727D01*
X199273Y443394D01*
X197607Y445393D02*
X199606D01*
Y446393D01*
X199273Y446726D01*
X197940D01*
X197607Y446393D01*
Y445393D01*
X199606Y447392D02*
X198273D01*
X197607Y448059D01*
X198273Y448725D01*
X199606D01*
X198607D01*
Y447392D01*
X229729Y366548D02*
X232681D01*
X233271Y367139D01*
Y368319D01*
X232681Y368910D01*
X229729D01*
X233271Y372452D02*
Y370090D01*
X230910Y372452D01*
X230319D01*
X229729Y371861D01*
Y370681D01*
X230319Y370090D01*
X123861Y348271D02*
Y344729D01*
X122090D01*
X121500Y345319D01*
Y346500D01*
X122090Y347090D01*
X123861D01*
X120319Y348271D02*
X119139D01*
X119729D01*
Y344729D01*
X120319Y345319D01*
X198107Y480894D02*
X199440D01*
X200106Y481560D01*
X199440Y482227D01*
X198107D01*
X198440Y484226D02*
X198107Y483893D01*
Y483226D01*
X198440Y482893D01*
X199773D01*
X200106Y483226D01*
Y483893D01*
X199773Y484226D01*
X198440Y486225D02*
X198107Y485892D01*
Y485226D01*
X198440Y484892D01*
X199773D01*
X200106Y485226D01*
Y485892D01*
X199773Y486225D01*
X198440Y472227D02*
X198107Y471893D01*
Y471227D01*
X198440Y470894D01*
X199773D01*
X200106Y471227D01*
Y471893D01*
X199773Y472227D01*
X199107D01*
Y471560D01*
X200106Y472893D02*
X198107D01*
X200106Y474226D01*
X198107D01*
Y474892D02*
X200106D01*
Y475892D01*
X199773Y476225D01*
X198440D01*
X198107Y475892D01*
Y474892D01*
X200106Y461894D02*
X198773D01*
X198107Y462560D01*
X198773Y463227D01*
X200106D01*
X199107D01*
Y461894D01*
X198440Y463893D02*
X198107Y464226D01*
Y464893D01*
X198440Y465226D01*
X199773D01*
X200106Y464893D01*
Y464226D01*
X199773Y463893D01*
X198440D01*
X185106Y465894D02*
X181564D01*
X182745Y467074D01*
X181564Y468255D01*
X185106D01*
X184516Y471797D02*
X182155D01*
X181564Y471207D01*
Y470026D01*
X182155Y469436D01*
X184516D01*
X185106Y470026D01*
Y471207D01*
X183926Y470617D02*
X185106Y471797D01*
Y471207D02*
X184516Y471797D01*
X185106Y472978D02*
Y474159D01*
Y473568D01*
X181564D01*
X182155Y472978D01*
Y475930D02*
X181564Y476520D01*
Y477701D01*
X182155Y478291D01*
X182745D01*
X183335Y477701D01*
Y477110D01*
Y477701D01*
X183926Y478291D01*
X184516D01*
X185106Y477701D01*
Y476520D01*
X184516Y475930D01*
X181564Y481833D02*
Y479472D01*
X183335D01*
X182745Y480653D01*
Y481243D01*
X183335Y481833D01*
X184516D01*
X185106Y481243D01*
Y480062D01*
X184516Y479472D01*
X241607Y430894D02*
X243273D01*
X244106Y431727D01*
X243273Y432560D01*
X241607D01*
Y433393D02*
X244106D01*
Y435059D01*
X242024Y442560D02*
X241607Y442143D01*
Y441310D01*
X242024Y440894D01*
X243690D01*
X244106Y441310D01*
Y442143D01*
X243690Y442560D01*
X242857D01*
Y441727D01*
X241607Y443393D02*
X244106D01*
Y445059D01*
X241607Y451894D02*
X244106D01*
Y453560D01*
X242024Y460560D02*
X241607Y460143D01*
Y459310D01*
X242024Y458894D01*
X243690D01*
X244106Y459310D01*
Y460143D01*
X243690Y460560D01*
X242857D01*
Y459727D01*
X244106Y461393D02*
X241607D01*
X244106Y463059D01*
X241607D01*
Y463892D02*
X244106D01*
Y465142D01*
X243690Y465558D01*
X242024D01*
X241607Y465142D01*
Y463892D01*
Y471143D02*
Y470310D01*
X242024Y469894D01*
X243690D01*
X244106Y470310D01*
Y471143D01*
X243690Y471560D01*
X242024D01*
X241607Y471143D01*
Y472393D02*
X243690D01*
X244106Y472809D01*
Y473642D01*
X243690Y474059D01*
X241607D01*
Y474892D02*
Y476558D01*
Y475725D01*
X244106D01*
X241607Y479894D02*
X243273D01*
X244106Y480727D01*
X243273Y481560D01*
X241607D01*
X242024Y484059D02*
X241607Y483642D01*
Y482809D01*
X242024Y482393D01*
X243690D01*
X244106Y482809D01*
Y483642D01*
X243690Y484059D01*
X242024Y486558D02*
X241607Y486142D01*
Y485309D01*
X242024Y484892D01*
X243690D01*
X244106Y485309D01*
Y486142D01*
X243690Y486558D01*
X225564Y449894D02*
X229106D01*
Y451665D01*
X228516Y452255D01*
X226154D01*
X225564Y451665D01*
Y449894D01*
Y453436D02*
X228516D01*
X229106Y454026D01*
Y455207D01*
X228516Y455797D01*
X225564D01*
X226154Y459339D02*
X225564Y458749D01*
Y457568D01*
X226154Y456978D01*
X226745D01*
X227335Y457568D01*
Y458749D01*
X227926Y459339D01*
X228516D01*
X229106Y458749D01*
Y457568D01*
X228516Y456978D01*
X225564Y460520D02*
Y462882D01*
Y461701D01*
X229106D01*
X226154Y466424D02*
X225564Y465833D01*
Y464653D01*
X226154Y464062D01*
X226745D01*
X227335Y464653D01*
Y465833D01*
X227926Y466424D01*
X228516D01*
X229106Y465833D01*
Y464653D01*
X228516Y464062D01*
X188729Y376361D02*
X192271D01*
Y374590D01*
X191681Y374000D01*
X190500D01*
X189910Y374590D01*
Y376361D01*
Y375181D02*
X188729Y374000D01*
Y372819D02*
Y371639D01*
Y372229D01*
X192271D01*
X191681Y372819D01*
X206729Y376952D02*
X210271D01*
Y375181D01*
X209681Y374590D01*
X208500D01*
X207910Y375181D01*
Y376952D01*
Y375771D02*
X206729Y374590D01*
Y371048D02*
Y373410D01*
X209090Y371048D01*
X209681D01*
X210271Y371639D01*
Y372819D01*
X209681Y373410D01*
X156139Y418271D02*
Y415319D01*
X156729Y414729D01*
X157910D01*
X158500Y415319D01*
Y418271D01*
X159681Y414729D02*
X160861D01*
X160271D01*
Y418271D01*
X159681Y417681D01*
X125319Y477725D02*
X124729Y477134D01*
Y475953D01*
X125319Y475363D01*
X127681D01*
X128271Y475953D01*
Y477134D01*
X127681Y477725D01*
X128271Y481267D02*
Y478905D01*
X125910Y481267D01*
X125319D01*
X124729Y480676D01*
Y479496D01*
X125319Y478905D01*
X107819Y476725D02*
X107229Y476134D01*
Y474954D01*
X107819Y474363D01*
X110181D01*
X110771Y474954D01*
Y476134D01*
X110181Y476725D01*
X107819Y477905D02*
X107229Y478496D01*
Y479676D01*
X107819Y480267D01*
X108410D01*
X109000Y479676D01*
Y479086D01*
Y479676D01*
X109590Y480267D01*
X110181D01*
X110771Y479676D01*
Y478496D01*
X110181Y477905D01*
X228500Y419181D02*
X227910Y419771D01*
X226729D01*
X226139Y419181D01*
Y416819D01*
X226729Y416229D01*
X227910D01*
X228500Y416819D01*
X229681Y416229D02*
X230861D01*
X230271D01*
Y419771D01*
X229681Y419181D01*
X125910Y454181D02*
X125319Y454771D01*
X124139D01*
X123548Y454181D01*
Y451819D01*
X124139Y451229D01*
X125319D01*
X125910Y451819D01*
X128861Y451229D02*
Y454771D01*
X127090Y453000D01*
X129452D01*
X203564Y468394D02*
X207106D01*
Y470165D01*
X206516Y470755D01*
X204154D01*
X203564Y470165D01*
Y468394D01*
Y471936D02*
X207106D01*
X205335D01*
Y474297D01*
X203564D01*
X207106D01*
X203564Y475478D02*
Y477839D01*
Y476659D01*
X207106D01*
X220107Y460394D02*
X221440D01*
X222106Y461060D01*
X221440Y461727D01*
X220107D01*
X220440Y463726D02*
X220107Y463393D01*
Y462726D01*
X220440Y462393D01*
X221773D01*
X222106Y462726D01*
Y463393D01*
X221773Y463726D01*
X220440Y465725D02*
X220107Y465392D01*
Y464726D01*
X220440Y464392D01*
X221773D01*
X222106Y464726D01*
Y465392D01*
X221773Y465725D01*
X220107Y471393D02*
Y470727D01*
X220440Y470394D01*
X221773D01*
X222106Y470727D01*
Y471393D01*
X221773Y471727D01*
X220440D01*
X220107Y471393D01*
Y472393D02*
X221773D01*
X222106Y472726D01*
Y473393D01*
X221773Y473726D01*
X220107D01*
Y474392D02*
Y475725D01*
Y475059D01*
X222106D01*
X220440Y481727D02*
X220107Y481393D01*
Y480727D01*
X220440Y480394D01*
X221773D01*
X222106Y480727D01*
Y481393D01*
X221773Y481727D01*
X221107D01*
Y481060D01*
X222106Y482393D02*
X220107D01*
X222106Y483726D01*
X220107D01*
Y484392D02*
X222106D01*
Y485392D01*
X221773Y485725D01*
X220440D01*
X220107Y485392D01*
Y484392D01*
D11*
X133343Y414598D02*
G03*
X113657Y414598I-9843J0D01*
G01*
Y390189D02*
G03*
X133343Y390189I9843J0D01*
G01*
X156000Y486185D02*
G03*
X161000Y486185I2500J0D01*
G01*
X238250Y412500D02*
G03*
X238250Y412500I-9750J0D01*
G01*
X136250Y447500D02*
G03*
X136250Y447500I-9750J0D01*
G01*
X113657Y390189D02*
Y414598D01*
X133343Y390189D02*
Y414598D01*
X186000Y451000D02*
X196000D01*
Y411000D02*
Y451000D01*
X186000Y411000D02*
Y451000D01*
X196000Y411000D02*
Y451000D01*
X186000Y411000D02*
X196000D01*
X186000D02*
Y451000D01*
Y411000D02*
X196000D01*
X222248Y349028D02*
Y389972D01*
X220280Y349028D02*
X238390D01*
Y349028D02*
Y389972D01*
X220280D02*
X238390D01*
X220280Y349028D02*
Y389972D01*
X117000Y363000D02*
X119000D01*
X127000D02*
X129000D01*
X128000Y362000D02*
Y364000D01*
X113000Y351000D02*
X133000D01*
X113000D02*
Y361000D01*
X133000D01*
Y351000D02*
Y361000D01*
X186500Y458500D02*
X196500D01*
X186500D02*
Y488500D01*
Y458500D02*
X196500D01*
X186500D02*
Y488500D01*
X196500D01*
Y458500D02*
Y488500D01*
X230500Y427500D02*
X240500D01*
Y487500D01*
X230500D02*
X240500D01*
X230500Y427500D02*
Y487500D01*
X194500Y366323D02*
Y381744D01*
X190500D02*
X194500D01*
X186500Y366323D02*
X194500D01*
X186500D02*
Y381744D01*
X190500D01*
Y356579D02*
Y366323D01*
Y381744D02*
Y391488D01*
X212500Y366323D02*
Y381744D01*
X208500D02*
X212500D01*
X204500Y366323D02*
X212500D01*
X204500D02*
Y381744D01*
X208500D01*
Y356579D02*
Y366323D01*
Y381744D02*
Y391488D01*
X148067Y346815D02*
X168933D01*
X161000Y486185D02*
X168933D01*
X148067D02*
X156000D01*
X168933Y346815D02*
Y486185D01*
X148067Y346815D02*
Y486185D01*
X130000Y463315D02*
Y493815D01*
Y463315D02*
X138000D01*
Y493815D01*
X130000D02*
X138000D01*
X112500Y462315D02*
Y492815D01*
Y462315D02*
X120500D01*
Y492815D01*
X112500D02*
X120500D01*
X222000Y408000D02*
X224000D01*
X223000Y407000D02*
Y409000D01*
X120000Y443000D02*
X122000D01*
X121000Y442000D02*
Y444000D01*
X218500Y458000D02*
Y488000D01*
X208500D02*
X218500D01*
X208500Y458000D02*
Y488000D01*
Y458000D02*
X218500D01*
X208500D02*
Y488000D01*
Y458000D02*
X218500D01*
D12*
X236323Y351587D02*
G03*
X236323Y351587I-492J0D01*
G01*
X143992Y486618D02*
G03*
X143992Y486618I-492J0D01*
G01*
D13*
X153185Y482248D02*
G03*
X153185Y482248I-1181J0D01*
G01*
M02*
