G04*
G04 #@! TF.GenerationSoftware,Altium Limited,Altium Designer,22.4.2 (48)*
G04*
G04 Layer_Physical_Order=1*
G04 Layer_Color=255*
%FSLAX25Y25*%
%MOIN*%
G70*
G04*
G04 #@! TF.SameCoordinates,58CDF047-041F-4824-80A0-4C5186096447*
G04*
G04*
G04 #@! TF.FilePolarity,Positive*
G04*
G01*
G75*
%ADD26C,0.02000*%
%ADD27C,0.04693*%
%ADD28R,0.04693X0.04693*%
%ADD29C,0.06000*%
%ADD30C,0.06693*%
%ADD31R,0.06693X0.06693*%
%ADD32C,0.07000*%
%ADD33C,0.05512*%
%ADD34C,0.05906*%
%ADD35R,0.05906X0.05906*%
%ADD36C,0.04724*%
D26*
X186000Y421000D02*
X191000Y426000D01*
X186000Y410300D02*
Y421000D01*
Y410300D02*
X195300Y401000D01*
Y393500D02*
Y401000D01*
X194000Y392200D02*
X195300Y393500D01*
X182800Y392200D02*
X194000D01*
X173500Y401500D02*
X182800Y392200D01*
X224500Y386500D02*
Y412500D01*
Y386500D02*
X231500Y379500D01*
X199800Y416800D02*
X235500Y452500D01*
X199800Y376300D02*
Y416800D01*
X180000Y356500D02*
X199800Y376300D01*
X148500Y356500D02*
X180000D01*
X143500Y361500D02*
X148500Y356500D01*
X235500Y472500D02*
X241000Y478000D01*
Y492000D01*
X236800Y496200D02*
X241000Y492000D01*
X142700Y496200D02*
X236800D01*
X138500Y492000D02*
X142700Y496200D01*
X138500Y466600D02*
Y492000D01*
Y466600D02*
X138600Y466500D01*
X148500D01*
X173500Y441500D01*
X116500Y457500D02*
Y467815D01*
X116100Y457100D02*
X116500Y457500D01*
X116100Y400187D02*
Y457100D01*
Y400187D02*
X123500Y392787D01*
Y412000D02*
X136200Y424700D01*
Y462847D01*
X134000Y465047D02*
X136200Y462847D01*
X134000Y465047D02*
Y468815D01*
X163500Y401500D02*
X173500D01*
X143500Y421500D02*
X163500Y401500D01*
X213500Y463000D02*
X218500Y468000D01*
Y485300D01*
X212000Y491800D02*
X218500Y485300D01*
X199800Y491800D02*
X212000D01*
X191500Y483500D02*
X199800Y491800D01*
X173500Y471500D02*
X181500Y463500D01*
Y455500D02*
Y463500D01*
Y455500D02*
X191000Y446000D01*
X208500Y369067D02*
Y397000D01*
X190500Y351067D02*
X208500Y369067D01*
X178453Y409047D02*
X190500Y397000D01*
X178453Y409047D02*
Y454000D01*
X176000Y456453D02*
X178453Y454000D01*
X168547Y456453D02*
X176000D01*
X143500Y481500D02*
X168547Y456453D01*
X235500Y432500D02*
X240300Y427700D01*
Y355367D02*
Y427700D01*
X236000Y351067D02*
X240300Y355367D01*
X208500Y351067D02*
X236000D01*
X191000Y426000D02*
X196000Y431000D01*
Y450500D01*
X186500Y460000D02*
X196000Y450500D01*
X186500Y460000D02*
Y478500D01*
X191500Y483500D01*
D27*
X123500Y412000D02*
D03*
D28*
Y392787D02*
D03*
D29*
X191000Y436000D02*
D03*
Y446000D02*
D03*
Y426000D02*
D03*
Y416000D02*
D03*
X128000Y356000D02*
D03*
X118000D02*
D03*
X191500Y463500D02*
D03*
Y473500D02*
D03*
Y483500D02*
D03*
X213500Y483000D02*
D03*
Y473000D02*
D03*
Y463000D02*
D03*
D30*
X231500Y379500D02*
D03*
Y369500D02*
D03*
D31*
Y359500D02*
D03*
D32*
X235500Y482500D02*
D03*
Y432500D02*
D03*
Y472500D02*
D03*
Y462500D02*
D03*
Y442500D02*
D03*
Y452500D02*
D03*
D33*
X190500Y397000D02*
D03*
Y351067D02*
D03*
X208500Y397000D02*
D03*
Y351067D02*
D03*
D34*
X173500Y351500D02*
D03*
Y361500D02*
D03*
Y371500D02*
D03*
Y381500D02*
D03*
Y391500D02*
D03*
Y401500D02*
D03*
Y411500D02*
D03*
Y421500D02*
D03*
Y431500D02*
D03*
Y441500D02*
D03*
Y451500D02*
D03*
Y461500D02*
D03*
Y471500D02*
D03*
Y481500D02*
D03*
X143500Y351500D02*
D03*
Y361500D02*
D03*
Y371500D02*
D03*
Y381500D02*
D03*
Y391500D02*
D03*
Y401500D02*
D03*
Y411500D02*
D03*
Y421500D02*
D03*
Y431500D02*
D03*
Y441500D02*
D03*
Y451500D02*
D03*
Y461500D02*
D03*
Y471500D02*
D03*
D35*
Y481500D02*
D03*
D36*
X134000Y468815D02*
D03*
Y488500D02*
D03*
X116500Y467815D02*
D03*
Y487500D02*
D03*
X224500Y412500D02*
D03*
X232500D02*
D03*
X122500Y447500D02*
D03*
X130500D02*
D03*
M02*
