G04*
G04 #@! TF.GenerationSoftware,Altium Limited,Altium Designer,22.4.2 (48)*
G04*
G04 Layer_Color=16711935*
%FSLAX25Y25*%
%MOIN*%
G70*
G04*
G04 #@! TF.SameCoordinates,58CDF047-041F-4824-80A0-4C5186096447*
G04*
G04*
G04 #@! TF.FilePolarity,Negative*
G04*
G01*
G75*
%ADD15C,0.05493*%
%ADD16R,0.05493X0.05493*%
%ADD17C,0.06800*%
%ADD18C,0.07493*%
%ADD19R,0.07493X0.07493*%
%ADD20C,0.07800*%
%ADD21C,0.06312*%
%ADD22C,0.06706*%
%ADD23R,0.06706X0.06706*%
%ADD24C,0.05524*%
%ADD25C,0.00800*%
D15*
X123500Y412000D02*
D03*
D16*
Y392787D02*
D03*
D17*
X191000Y436000D02*
D03*
Y446000D02*
D03*
Y426000D02*
D03*
Y416000D02*
D03*
X128000Y356000D02*
D03*
X118000D02*
D03*
X191500Y463500D02*
D03*
Y473500D02*
D03*
Y483500D02*
D03*
X213500Y483000D02*
D03*
Y473000D02*
D03*
Y463000D02*
D03*
D18*
X231500Y379500D02*
D03*
Y369500D02*
D03*
D19*
Y359500D02*
D03*
D20*
X235500Y482500D02*
D03*
Y432500D02*
D03*
Y472500D02*
D03*
Y462500D02*
D03*
Y442500D02*
D03*
Y452500D02*
D03*
D21*
X190500Y397000D02*
D03*
Y351067D02*
D03*
X208500Y397000D02*
D03*
Y351067D02*
D03*
D22*
X173500Y351500D02*
D03*
Y361500D02*
D03*
Y371500D02*
D03*
Y381500D02*
D03*
Y391500D02*
D03*
Y401500D02*
D03*
Y411500D02*
D03*
Y421500D02*
D03*
Y431500D02*
D03*
Y441500D02*
D03*
Y451500D02*
D03*
Y461500D02*
D03*
Y471500D02*
D03*
Y481500D02*
D03*
X143500Y351500D02*
D03*
Y361500D02*
D03*
Y371500D02*
D03*
Y381500D02*
D03*
Y391500D02*
D03*
Y401500D02*
D03*
Y411500D02*
D03*
Y421500D02*
D03*
Y431500D02*
D03*
Y441500D02*
D03*
Y451500D02*
D03*
Y461500D02*
D03*
Y471500D02*
D03*
D23*
Y481500D02*
D03*
D24*
X134000Y468815D02*
D03*
Y488500D02*
D03*
X116500Y467815D02*
D03*
Y487500D02*
D03*
X224500Y412500D02*
D03*
X232500D02*
D03*
X122500Y447500D02*
D03*
X130500D02*
D03*
D25*
X244500Y346500D02*
D03*
X105000D02*
D03*
X244500Y498000D02*
D03*
X105000D02*
D03*
M02*
