G04*
G04 #@! TF.GenerationSoftware,Altium Limited,Altium Designer,22.4.2 (48)*
G04*
G04 Layer_Color=2752767*
%FSLAX25Y25*%
%MOIN*%
G70*
G04*
G04 #@! TF.SameCoordinates,58CDF047-041F-4824-80A0-4C5186096447*
G04*
G04*
G04 #@! TF.FilePolarity,Positive*
G04*
G01*
G75*
%ADD37C,0.00500*%
%ADD38C,0.00667*%
D37*
X121500Y410000D02*
Y414000D01*
X125500D01*
Y410000D01*
X121500D01*
Y390787D02*
Y394787D01*
X125500D01*
Y390787D01*
X121500D01*
X231500Y377500D02*
X229500Y381500D01*
X233500D01*
X231500Y377500D01*
Y367500D02*
X229500Y371500D01*
X233500D01*
X231500Y367500D01*
Y357500D02*
X229500Y361500D01*
X233500D01*
X231500Y357500D01*
X190500Y395000D02*
X191500Y396000D01*
X192500D01*
X191500Y397000D01*
X192500Y398000D01*
X191500D01*
X190500Y399000D01*
X189500Y398000D01*
X188500D01*
X189500Y397000D01*
X188500Y396000D01*
X189500D01*
X190500Y395000D01*
Y349067D02*
X191500Y350067D01*
X192500D01*
X191500Y351067D01*
X192500Y352067D01*
X191500D01*
X190500Y353067D01*
X189500Y352067D01*
X188500D01*
X189500Y351067D01*
X188500Y350067D01*
X189500D01*
X190500Y349067D01*
X208500Y395000D02*
X209500Y396000D01*
X210500D01*
X209500Y397000D01*
X210500Y398000D01*
X209500D01*
X208500Y399000D01*
X207500Y398000D01*
X206500D01*
X207500Y397000D01*
X206500Y396000D01*
X207500D01*
X208500Y395000D01*
Y349067D02*
X209500Y350067D01*
X210500D01*
X209500Y351067D01*
X210500Y352067D01*
X209500D01*
X208500Y353067D01*
X207500Y352067D01*
X206500D01*
X207500Y351067D01*
X206500Y350067D01*
X207500D01*
X208500Y349067D01*
X171500Y349500D02*
X172500Y351500D01*
X171500Y353500D01*
X173500Y352500D01*
X175500Y353500D01*
X174500Y351500D01*
X175500Y349500D01*
X173500Y350500D01*
X171500Y349500D01*
Y359500D02*
X172500Y361500D01*
X171500Y363500D01*
X173500Y362500D01*
X175500Y363500D01*
X174500Y361500D01*
X175500Y359500D01*
X173500Y360500D01*
X171500Y359500D01*
Y369500D02*
X172500Y371500D01*
X171500Y373500D01*
X173500Y372500D01*
X175500Y373500D01*
X174500Y371500D01*
X175500Y369500D01*
X173500Y370500D01*
X171500Y369500D01*
Y379500D02*
X172500Y381500D01*
X171500Y383500D01*
X173500Y382500D01*
X175500Y383500D01*
X174500Y381500D01*
X175500Y379500D01*
X173500Y380500D01*
X171500Y379500D01*
Y389500D02*
X172500Y391500D01*
X171500Y393500D01*
X173500Y392500D01*
X175500Y393500D01*
X174500Y391500D01*
X175500Y389500D01*
X173500Y390500D01*
X171500Y389500D01*
Y399500D02*
X172500Y401500D01*
X171500Y403500D01*
X173500Y402500D01*
X175500Y403500D01*
X174500Y401500D01*
X175500Y399500D01*
X173500Y400500D01*
X171500Y399500D01*
Y409500D02*
X172500Y411500D01*
X171500Y413500D01*
X173500Y412500D01*
X175500Y413500D01*
X174500Y411500D01*
X175500Y409500D01*
X173500Y410500D01*
X171500Y409500D01*
Y419500D02*
X172500Y421500D01*
X171500Y423500D01*
X173500Y422500D01*
X175500Y423500D01*
X174500Y421500D01*
X175500Y419500D01*
X173500Y420500D01*
X171500Y419500D01*
Y429500D02*
X172500Y431500D01*
X171500Y433500D01*
X173500Y432500D01*
X175500Y433500D01*
X174500Y431500D01*
X175500Y429500D01*
X173500Y430500D01*
X171500Y429500D01*
Y439500D02*
X172500Y441500D01*
X171500Y443500D01*
X173500Y442500D01*
X175500Y443500D01*
X174500Y441500D01*
X175500Y439500D01*
X173500Y440500D01*
X171500Y439500D01*
Y449500D02*
X172500Y451500D01*
X171500Y453500D01*
X173500Y452500D01*
X175500Y453500D01*
X174500Y451500D01*
X175500Y449500D01*
X173500Y450500D01*
X171500Y449500D01*
Y459500D02*
X172500Y461500D01*
X171500Y463500D01*
X173500Y462500D01*
X175500Y463500D01*
X174500Y461500D01*
X175500Y459500D01*
X173500Y460500D01*
X171500Y459500D01*
Y469500D02*
X172500Y471500D01*
X171500Y473500D01*
X173500Y472500D01*
X175500Y473500D01*
X174500Y471500D01*
X175500Y469500D01*
X173500Y470500D01*
X171500Y469500D01*
Y479500D02*
X172500Y481500D01*
X171500Y483500D01*
X173500Y482500D01*
X175500Y483500D01*
X174500Y481500D01*
X175500Y479500D01*
X173500Y480500D01*
X171500Y479500D01*
X141500Y349500D02*
X142500Y351500D01*
X141500Y353500D01*
X143500Y352500D01*
X145500Y353500D01*
X144500Y351500D01*
X145500Y349500D01*
X143500Y350500D01*
X141500Y349500D01*
Y359500D02*
X142500Y361500D01*
X141500Y363500D01*
X143500Y362500D01*
X145500Y363500D01*
X144500Y361500D01*
X145500Y359500D01*
X143500Y360500D01*
X141500Y359500D01*
Y369500D02*
X142500Y371500D01*
X141500Y373500D01*
X143500Y372500D01*
X145500Y373500D01*
X144500Y371500D01*
X145500Y369500D01*
X143500Y370500D01*
X141500Y369500D01*
Y379500D02*
X142500Y381500D01*
X141500Y383500D01*
X143500Y382500D01*
X145500Y383500D01*
X144500Y381500D01*
X145500Y379500D01*
X143500Y380500D01*
X141500Y379500D01*
Y389500D02*
X142500Y391500D01*
X141500Y393500D01*
X143500Y392500D01*
X145500Y393500D01*
X144500Y391500D01*
X145500Y389500D01*
X143500Y390500D01*
X141500Y389500D01*
Y399500D02*
X142500Y401500D01*
X141500Y403500D01*
X143500Y402500D01*
X145500Y403500D01*
X144500Y401500D01*
X145500Y399500D01*
X143500Y400500D01*
X141500Y399500D01*
Y409500D02*
X142500Y411500D01*
X141500Y413500D01*
X143500Y412500D01*
X145500Y413500D01*
X144500Y411500D01*
X145500Y409500D01*
X143500Y410500D01*
X141500Y409500D01*
Y419500D02*
X142500Y421500D01*
X141500Y423500D01*
X143500Y422500D01*
X145500Y423500D01*
X144500Y421500D01*
X145500Y419500D01*
X143500Y420500D01*
X141500Y419500D01*
Y429500D02*
X142500Y431500D01*
X141500Y433500D01*
X143500Y432500D01*
X145500Y433500D01*
X144500Y431500D01*
X145500Y429500D01*
X143500Y430500D01*
X141500Y429500D01*
Y439500D02*
X142500Y441500D01*
X141500Y443500D01*
X143500Y442500D01*
X145500Y443500D01*
X144500Y441500D01*
X145500Y439500D01*
X143500Y440500D01*
X141500Y439500D01*
Y449500D02*
X142500Y451500D01*
X141500Y453500D01*
X143500Y452500D01*
X145500Y453500D01*
X144500Y451500D01*
X145500Y449500D01*
X143500Y450500D01*
X141500Y449500D01*
Y459500D02*
X142500Y461500D01*
X141500Y463500D01*
X143500Y462500D01*
X145500Y463500D01*
X144500Y461500D01*
X145500Y459500D01*
X143500Y460500D01*
X141500Y459500D01*
Y469500D02*
X142500Y471500D01*
X141500Y473500D01*
X143500Y472500D01*
X145500Y473500D01*
X144500Y471500D01*
X145500Y469500D01*
X143500Y470500D01*
X141500Y469500D01*
Y479500D02*
X142500Y481500D01*
X141500Y483500D01*
X143500Y482500D01*
X145500Y483500D01*
X144500Y481500D01*
X145500Y479500D01*
X143500Y480500D01*
X141500Y479500D01*
X133000Y467815D02*
Y466815D01*
X135000D01*
Y467815D01*
X136000D01*
Y469815D01*
X135000D01*
Y470815D01*
X133000D01*
Y469815D01*
X132000D01*
Y467815D01*
X133000D01*
Y487500D02*
Y486500D01*
X135000D01*
Y487500D01*
X136000D01*
Y489500D01*
X135000D01*
Y490500D01*
X133000D01*
Y489500D01*
X132000D01*
Y487500D01*
X133000D01*
X115500Y466815D02*
Y465815D01*
X117500D01*
Y466815D01*
X118500D01*
Y468815D01*
X117500D01*
Y469815D01*
X115500D01*
Y468815D01*
X114500D01*
Y466815D01*
X115500D01*
Y486500D02*
Y485500D01*
X117500D01*
Y486500D01*
X118500D01*
Y488500D01*
X117500D01*
Y489500D01*
X115500D01*
Y488500D01*
X114500D01*
Y486500D01*
X115500D01*
X223500Y411500D02*
Y410500D01*
X225500D01*
Y411500D01*
X226500D01*
Y413500D01*
X225500D01*
Y414500D01*
X223500D01*
Y413500D01*
X222500D01*
Y411500D01*
X223500D01*
X231500D02*
Y410500D01*
X233500D01*
Y411500D01*
X234500D01*
Y413500D01*
X233500D01*
Y414500D01*
X231500D01*
Y413500D01*
X230500D01*
Y411500D01*
X231500D01*
X121500Y446500D02*
Y445500D01*
X123500D01*
Y446500D01*
X124500D01*
Y448500D01*
X123500D01*
Y449500D01*
X121500D01*
Y448500D01*
X120500D01*
Y446500D01*
X121500D01*
X129500D02*
Y445500D01*
X131500D01*
Y446500D01*
X132500D01*
Y448500D01*
X131500D01*
Y449500D01*
X129500D01*
Y448500D01*
X128500D01*
Y446500D01*
X129500D01*
X242500Y344500D02*
X243500D01*
X244500Y345500D01*
X245500Y344500D01*
X246500D01*
Y345500D01*
X245500Y346500D01*
X246500Y347500D01*
Y348500D01*
X245500D01*
X244500Y347500D01*
X243500Y348500D01*
X242500D01*
Y347500D01*
X243500Y346500D01*
X242500Y345500D01*
Y344500D01*
X103000D02*
X104000D01*
X105000Y345500D01*
X106000Y344500D01*
X107000D01*
Y345500D01*
X106000Y346500D01*
X107000Y347500D01*
Y348500D01*
X106000D01*
X105000Y347500D01*
X104000Y348500D01*
X103000D01*
Y347500D01*
X104000Y346500D01*
X103000Y345500D01*
Y344500D01*
X242500Y496000D02*
X243500D01*
X244500Y497000D01*
X245500Y496000D01*
X246500D01*
Y497000D01*
X245500Y498000D01*
X246500Y499000D01*
Y500000D01*
X245500D01*
X244500Y499000D01*
X243500Y500000D01*
X242500D01*
Y499000D01*
X243500Y498000D01*
X242500Y497000D01*
Y496000D01*
X103000D02*
X104000D01*
X105000Y497000D01*
X106000Y496000D01*
X107000D01*
Y497000D01*
X106000Y498000D01*
X107000Y499000D01*
Y500000D01*
X106000D01*
X105000Y499000D01*
X104000Y500000D01*
X103000D01*
Y499000D01*
X104000Y498000D01*
X103000Y497000D01*
Y496000D01*
D38*
X193000Y436000D02*
G03*
X193000Y436000I-2000J0D01*
G01*
Y446000D02*
G03*
X193000Y446000I-2000J0D01*
G01*
Y426000D02*
G03*
X193000Y426000I-2000J0D01*
G01*
Y416000D02*
G03*
X193000Y416000I-2000J0D01*
G01*
X130000Y356000D02*
G03*
X130000Y356000I-2000J0D01*
G01*
X120000D02*
G03*
X120000Y356000I-2000J0D01*
G01*
X193500Y463500D02*
G03*
X193500Y463500I-2000J0D01*
G01*
Y473500D02*
G03*
X193500Y473500I-2000J0D01*
G01*
Y483500D02*
G03*
X193500Y483500I-2000J0D01*
G01*
X237500Y482500D02*
G03*
X237500Y482500I-2000J0D01*
G01*
Y432500D02*
G03*
X237500Y432500I-2000J0D01*
G01*
Y472500D02*
G03*
X237500Y472500I-2000J0D01*
G01*
Y462500D02*
G03*
X237500Y462500I-2000J0D01*
G01*
Y442500D02*
G03*
X237500Y442500I-2000J0D01*
G01*
Y452500D02*
G03*
X237500Y452500I-2000J0D01*
G01*
X215500Y483000D02*
G03*
X215500Y483000I-2000J0D01*
G01*
Y473000D02*
G03*
X215500Y473000I-2000J0D01*
G01*
Y463000D02*
G03*
X215500Y463000I-2000J0D01*
G01*
M02*
