G04*
G04 #@! TF.GenerationSoftware,Altium Limited,Altium Designer,22.4.2 (48)*
G04*
G04 Layer_Physical_Order=2*
G04 Layer_Color=16711680*
%FSLAX25Y25*%
%MOIN*%
G70*
G04*
G04 #@! TF.SameCoordinates,58CDF047-041F-4824-80A0-4C5186096447*
G04*
G04*
G04 #@! TF.FilePolarity,Positive*
G04*
G01*
G75*
%ADD26C,0.02000*%
%ADD27C,0.04693*%
%ADD28R,0.04693X0.04693*%
%ADD29C,0.06000*%
%ADD30C,0.06693*%
%ADD31R,0.06693X0.06693*%
%ADD32C,0.07000*%
%ADD33C,0.05512*%
%ADD34C,0.05906*%
%ADD35R,0.05906X0.05906*%
%ADD36C,0.04724*%
G36*
X244500Y497500D02*
X239563D01*
Y497350D01*
X239899Y496094D01*
X240549Y494969D01*
X241469Y494049D01*
X242594Y493399D01*
X243850Y493063D01*
X244500D01*
Y351437D01*
X243850D01*
X242594Y351101D01*
X241469Y350451D01*
X240549Y349531D01*
X239899Y348406D01*
X239563Y347150D01*
Y347000D01*
X244500D01*
Y346000D01*
X239563D01*
Y345850D01*
X239899Y344594D01*
X239993Y344433D01*
X239743Y344000D01*
X109757D01*
X109507Y344433D01*
X109601Y344594D01*
X109937Y345850D01*
Y346000D01*
X105000D01*
Y347000D01*
X109937D01*
Y347150D01*
X109601Y348406D01*
X108951Y349531D01*
X108031Y350451D01*
X106906Y351101D01*
X105650Y351437D01*
X105000D01*
Y493063D01*
X105650D01*
X106906Y493399D01*
X108031Y494049D01*
X108951Y494969D01*
X109601Y496094D01*
X109937Y497350D01*
Y497500D01*
X105000D01*
Y498500D01*
X244500D01*
Y497500D01*
D02*
G37*
%LPC*%
G36*
X134500Y491847D02*
Y489000D01*
X137347D01*
X137133Y489798D01*
X136690Y490564D01*
X136064Y491190D01*
X135298Y491633D01*
X134500Y491847D01*
D02*
G37*
G36*
X133500D02*
X132702Y491633D01*
X131936Y491190D01*
X131310Y490564D01*
X130867Y489798D01*
X130653Y489000D01*
X133500D01*
Y491847D01*
D02*
G37*
G36*
X117000Y490847D02*
Y488000D01*
X119847D01*
X119633Y488798D01*
X119190Y489564D01*
X118564Y490190D01*
X117798Y490633D01*
X117000Y490847D01*
D02*
G37*
G36*
X116000D02*
X115202Y490633D01*
X114436Y490190D01*
X113810Y489564D01*
X113367Y488798D01*
X113153Y488000D01*
X116000D01*
Y490847D01*
D02*
G37*
G36*
X236000Y493339D02*
X183300D01*
X182520Y493184D01*
X181858Y492742D01*
X174453Y485337D01*
X174020Y485453D01*
X172980D01*
X171974Y485183D01*
X171073Y484663D01*
X170337Y483927D01*
X169817Y483026D01*
X169547Y482020D01*
Y480980D01*
X169817Y479974D01*
X170337Y479073D01*
X171073Y478337D01*
X171974Y477817D01*
X172980Y477547D01*
X174020D01*
X175026Y477817D01*
X175927Y478337D01*
X176663Y479073D01*
X177183Y479974D01*
X177453Y480980D01*
Y482020D01*
X177337Y482453D01*
X184145Y489261D01*
X235155D01*
X237194Y487223D01*
X236935Y486774D01*
X236092Y487000D01*
X234908D01*
X233763Y486693D01*
X232737Y486101D01*
X231899Y485263D01*
X231307Y484237D01*
X231000Y483092D01*
Y481908D01*
X231216Y481100D01*
X230155Y480039D01*
X228500D01*
X227720Y479884D01*
X227058Y479442D01*
X214492Y466875D01*
X214027Y467000D01*
X212973D01*
X211956Y466727D01*
X211044Y466201D01*
X210299Y465456D01*
X209773Y464544D01*
X209500Y463527D01*
Y462473D01*
X209773Y461456D01*
X210299Y460544D01*
X211044Y459799D01*
X211956Y459273D01*
X212973Y459000D01*
X214027D01*
X215044Y459273D01*
X215956Y459799D01*
X216701Y460544D01*
X217227Y461456D01*
X217500Y462473D01*
Y463527D01*
X217375Y463992D01*
X229345Y475961D01*
X231000D01*
X231780Y476116D01*
X232442Y476558D01*
X234100Y478216D01*
X234908Y478000D01*
X236092D01*
X237237Y478307D01*
X238263Y478899D01*
X238499Y479135D01*
X238961Y478944D01*
Y476056D01*
X238499Y475865D01*
X238263Y476101D01*
X237237Y476693D01*
X236092Y477000D01*
X234908D01*
X233763Y476693D01*
X232737Y476101D01*
X231899Y475263D01*
X231307Y474237D01*
X231000Y473092D01*
Y471908D01*
X231307Y470763D01*
X231899Y469737D01*
X232737Y468899D01*
X233763Y468307D01*
X234908Y468000D01*
X236092D01*
X237237Y468307D01*
X238263Y468899D01*
X238499Y469135D01*
X238961Y468944D01*
Y466056D01*
X238499Y465865D01*
X238263Y466101D01*
X237237Y466693D01*
X236092Y467000D01*
X236000D01*
Y462500D01*
Y458000D01*
X236092D01*
X237237Y458307D01*
X238263Y458899D01*
X238499Y459135D01*
X238961Y458944D01*
Y456056D01*
X238499Y455865D01*
X238263Y456101D01*
X237237Y456693D01*
X236092Y457000D01*
X234908D01*
X233763Y456693D01*
X232737Y456101D01*
X231899Y455263D01*
X231307Y454237D01*
X231000Y453092D01*
Y451908D01*
X231307Y450763D01*
X231899Y449737D01*
X232737Y448899D01*
X233763Y448307D01*
X234908Y448000D01*
X236092D01*
X237237Y448307D01*
X238263Y448899D01*
X238499Y449135D01*
X238961Y448944D01*
Y446056D01*
X238499Y445865D01*
X238263Y446101D01*
X237237Y446693D01*
X236092Y447000D01*
X236000D01*
Y442500D01*
Y438000D01*
X236092D01*
X237237Y438307D01*
X238263Y438899D01*
X238499Y439135D01*
X238961Y438944D01*
Y436056D01*
X238499Y435865D01*
X238263Y436101D01*
X237237Y436693D01*
X236092Y437000D01*
X234908D01*
X234100Y436784D01*
X228442Y442442D01*
X227780Y442884D01*
X227000Y443039D01*
X194349D01*
X194158Y443501D01*
X194201Y443544D01*
X194727Y444456D01*
X195000Y445473D01*
Y446527D01*
X194727Y447544D01*
X194201Y448456D01*
X193456Y449201D01*
X192544Y449727D01*
X191527Y450000D01*
X190473D01*
X189456Y449727D01*
X188544Y449201D01*
X187799Y448456D01*
X187273Y447544D01*
X187000Y446527D01*
Y445473D01*
X187273Y444456D01*
X187799Y443544D01*
X187842Y443501D01*
X187651Y443039D01*
X182200D01*
X181420Y442884D01*
X180758Y442442D01*
X177187Y438870D01*
X177130Y438882D01*
X176876Y439442D01*
X177183Y439974D01*
X177453Y440980D01*
Y442020D01*
X177183Y443026D01*
X176663Y443927D01*
X175927Y444663D01*
X175026Y445183D01*
X174020Y445453D01*
X172980D01*
X171974Y445183D01*
X171073Y444663D01*
X170337Y443927D01*
X169817Y443026D01*
X169547Y442020D01*
Y440980D01*
X169817Y439974D01*
X170337Y439073D01*
X170409Y439001D01*
X170218Y438539D01*
X146783D01*
X146591Y439001D01*
X146663Y439073D01*
X147183Y439974D01*
X147453Y440980D01*
Y442020D01*
X147183Y443026D01*
X146663Y443927D01*
X145927Y444663D01*
X145026Y445183D01*
X144020Y445453D01*
X142980D01*
X141974Y445183D01*
X141073Y444663D01*
X140337Y443927D01*
X139817Y443026D01*
X139547Y442020D01*
Y440980D01*
X139817Y439974D01*
X140337Y439073D01*
X140409Y439001D01*
X140217Y438539D01*
X134345D01*
X128947Y443937D01*
X129202Y444367D01*
X130000Y444153D01*
Y447000D01*
X127153D01*
X127367Y446202D01*
X126937Y445947D01*
X125855Y447029D01*
X125862Y447057D01*
Y447943D01*
X125633Y448798D01*
X125190Y449564D01*
X124994Y449761D01*
X125043Y450258D01*
X125342Y450458D01*
X139345Y464461D01*
X140217D01*
X140409Y463999D01*
X140337Y463927D01*
X139817Y463026D01*
X139547Y462020D01*
Y460980D01*
X139817Y459974D01*
X140337Y459073D01*
X141073Y458337D01*
X141974Y457817D01*
X142980Y457547D01*
X144020D01*
X145026Y457817D01*
X145927Y458337D01*
X146663Y459073D01*
X147183Y459974D01*
X147453Y460980D01*
Y462020D01*
X147183Y463026D01*
X146663Y463927D01*
X146591Y463999D01*
X146783Y464461D01*
X170218D01*
X170409Y463999D01*
X170337Y463927D01*
X169817Y463026D01*
X169547Y462020D01*
Y460980D01*
X169817Y459974D01*
X170337Y459073D01*
X170409Y459001D01*
X170218Y458539D01*
X148500D01*
X147720Y458384D01*
X147058Y457942D01*
X144453Y455337D01*
X144020Y455453D01*
X142980D01*
X141974Y455183D01*
X141073Y454663D01*
X140337Y453927D01*
X139817Y453026D01*
X139547Y452020D01*
Y450980D01*
X139817Y449974D01*
X140337Y449073D01*
X141073Y448337D01*
X141974Y447817D01*
X142980Y447547D01*
X144020D01*
X145026Y447817D01*
X145927Y448337D01*
X146663Y449073D01*
X147183Y449974D01*
X147453Y450980D01*
Y452020D01*
X147337Y452453D01*
X149345Y454461D01*
X170218D01*
X170409Y453999D01*
X170337Y453927D01*
X169817Y453026D01*
X169547Y452020D01*
Y450980D01*
X169817Y449974D01*
X170337Y449073D01*
X171073Y448337D01*
X171974Y447817D01*
X172980Y447547D01*
X174020D01*
X175026Y447817D01*
X175927Y448337D01*
X176663Y449073D01*
X177183Y449974D01*
X177453Y450980D01*
Y452020D01*
X177183Y453026D01*
X176663Y453927D01*
X176591Y453999D01*
X176783Y454461D01*
X197000D01*
X197780Y454616D01*
X198442Y455058D01*
X212508Y469125D01*
X212973Y469000D01*
X214027D01*
X215044Y469273D01*
X215956Y469799D01*
X216701Y470544D01*
X217227Y471456D01*
X217500Y472473D01*
Y473527D01*
X217227Y474544D01*
X216701Y475456D01*
X215956Y476201D01*
X215044Y476727D01*
X214027Y477000D01*
X212973D01*
X211956Y476727D01*
X211044Y476201D01*
X210299Y475456D01*
X209773Y474544D01*
X209500Y473527D01*
Y472473D01*
X209625Y472008D01*
X196155Y458539D01*
X176783D01*
X176591Y459001D01*
X176663Y459073D01*
X177183Y459974D01*
X177453Y460980D01*
Y462020D01*
X177183Y463026D01*
X176663Y463927D01*
X176591Y463999D01*
X176783Y464461D01*
X187206D01*
X187510Y464064D01*
X187500Y464027D01*
Y462973D01*
X187773Y461956D01*
X188299Y461044D01*
X189044Y460299D01*
X189956Y459773D01*
X190973Y459500D01*
X192027D01*
X193044Y459773D01*
X193956Y460299D01*
X194701Y461044D01*
X195227Y461956D01*
X195500Y462973D01*
Y464027D01*
X195227Y465044D01*
X194701Y465956D01*
X193956Y466701D01*
X193044Y467227D01*
X192027Y467500D01*
X190973D01*
X190508Y467375D01*
X189942Y467942D01*
X189280Y468384D01*
X188500Y468539D01*
X176783D01*
X176591Y469001D01*
X176663Y469073D01*
X177183Y469974D01*
X177453Y470980D01*
Y472020D01*
X177183Y473026D01*
X176663Y473927D01*
X175927Y474663D01*
X175026Y475183D01*
X174020Y475453D01*
X172980D01*
X171974Y475183D01*
X171073Y474663D01*
X170337Y473927D01*
X169817Y473026D01*
X169547Y472020D01*
Y470980D01*
X169817Y469974D01*
X170337Y469073D01*
X170409Y469001D01*
X170218Y468539D01*
X146783D01*
X146591Y469001D01*
X146663Y469073D01*
X147183Y469974D01*
X147453Y470980D01*
Y472020D01*
X147183Y473026D01*
X146663Y473927D01*
X145927Y474663D01*
X145026Y475183D01*
X144020Y475453D01*
X142980D01*
X141974Y475183D01*
X141073Y474663D01*
X140337Y473927D01*
X139817Y473026D01*
X139547Y472020D01*
Y470980D01*
X139817Y469974D01*
X140337Y469073D01*
X140409Y469001D01*
X140217Y468539D01*
X138500D01*
X137862Y468412D01*
X137467Y468640D01*
X137362Y468747D01*
Y469258D01*
X137133Y470113D01*
X136690Y470879D01*
X136064Y471505D01*
X135298Y471948D01*
X134443Y472177D01*
X133557D01*
X132702Y471948D01*
X131936Y471505D01*
X131310Y470879D01*
X130867Y470113D01*
X130638Y469258D01*
Y468372D01*
X130867Y467517D01*
X131310Y466750D01*
X131936Y466124D01*
X132702Y465682D01*
X133557Y465453D01*
X133862D01*
X134069Y464953D01*
X123055Y453939D01*
X120000D01*
X120000Y453939D01*
X119220Y453784D01*
X118558Y453342D01*
X116658Y451442D01*
X116216Y450780D01*
X116061Y450000D01*
Y422400D01*
X116216Y421620D01*
X116658Y420958D01*
X122052Y415564D01*
X121943Y414965D01*
X121445Y414678D01*
X120822Y414055D01*
X120382Y413292D01*
X120153Y412441D01*
Y411559D01*
X120382Y410708D01*
X120822Y409945D01*
X121445Y409322D01*
X122208Y408882D01*
X123059Y408653D01*
X123941D01*
X123958Y408658D01*
X132558Y400058D01*
X133220Y399616D01*
X134000Y399461D01*
X140113D01*
X140337Y399073D01*
X141073Y398337D01*
X141974Y397817D01*
X142980Y397547D01*
X144020D01*
X145026Y397817D01*
X145927Y398337D01*
X146663Y399073D01*
X147183Y399974D01*
X147453Y400980D01*
Y402020D01*
X147183Y403026D01*
X146663Y403927D01*
X145927Y404663D01*
X145026Y405183D01*
X144020Y405453D01*
X142980D01*
X141974Y405183D01*
X141073Y404663D01*
X140337Y403927D01*
X140113Y403539D01*
X134845D01*
X126842Y411542D01*
X126847Y411559D01*
Y412441D01*
X126618Y413292D01*
X126232Y413961D01*
X126408Y414461D01*
X140217D01*
X140409Y413999D01*
X140337Y413927D01*
X139817Y413026D01*
X139547Y412020D01*
Y412000D01*
X147453D01*
Y412020D01*
X147183Y413026D01*
X146663Y413927D01*
X146591Y413999D01*
X146783Y414461D01*
X158500D01*
X159280Y414616D01*
X159942Y415058D01*
X172547Y427663D01*
X172980Y427547D01*
X174020D01*
X175026Y427817D01*
X175927Y428337D01*
X176663Y429073D01*
X177183Y429974D01*
X177453Y430980D01*
Y432020D01*
X177183Y433026D01*
X176663Y433927D01*
X176591Y433999D01*
X176783Y434461D01*
X177700D01*
X178480Y434616D01*
X179142Y435058D01*
X183045Y438961D01*
X187651D01*
X187842Y438499D01*
X187799Y438456D01*
X187273Y437544D01*
X187000Y436527D01*
Y435473D01*
X187273Y434456D01*
X187799Y433544D01*
X188544Y432799D01*
X189456Y432273D01*
X190473Y432000D01*
X191527D01*
X191992Y432125D01*
X199558Y424558D01*
X199558Y424558D01*
X200220Y424116D01*
X201000Y423961D01*
X201000Y423961D01*
X239000D01*
X239780Y424116D01*
X240442Y424558D01*
X242442Y426558D01*
X242884Y427220D01*
X243039Y428000D01*
Y486300D01*
X242884Y487080D01*
X242442Y487742D01*
X237442Y492742D01*
X236780Y493184D01*
X236000Y493339D01*
D02*
G37*
G36*
X137347Y488000D02*
X134500D01*
Y485153D01*
X135298Y485367D01*
X136064Y485810D01*
X136690Y486436D01*
X137133Y487202D01*
X137347Y488000D01*
D02*
G37*
G36*
X133500D02*
X130653D01*
X130867Y487202D01*
X131310Y486436D01*
X131936Y485810D01*
X132702Y485367D01*
X133500Y485153D01*
Y488000D01*
D02*
G37*
G36*
X119847Y487000D02*
X117000D01*
Y484153D01*
X117798Y484367D01*
X118564Y484810D01*
X119190Y485436D01*
X119633Y486202D01*
X119847Y487000D01*
D02*
G37*
G36*
X116000D02*
X113153D01*
X113367Y486202D01*
X113810Y485436D01*
X114436Y484810D01*
X115202Y484367D01*
X116000Y484153D01*
Y487000D01*
D02*
G37*
G36*
X214027D02*
X214000D01*
Y483500D01*
X217500D01*
Y483527D01*
X217227Y484544D01*
X216701Y485456D01*
X215956Y486201D01*
X215044Y486727D01*
X214027Y487000D01*
D02*
G37*
G36*
X213000D02*
X212973D01*
X211956Y486727D01*
X211044Y486201D01*
X210299Y485456D01*
X209773Y484544D01*
X209500Y483527D01*
Y483500D01*
X213000D01*
Y487000D01*
D02*
G37*
G36*
X192027Y487500D02*
X190973D01*
X189956Y487227D01*
X189044Y486701D01*
X188299Y485956D01*
X187773Y485044D01*
X187500Y484027D01*
Y482973D01*
X187773Y481956D01*
X188299Y481044D01*
X189044Y480299D01*
X189956Y479773D01*
X190973Y479500D01*
X192027D01*
X193044Y479773D01*
X193956Y480299D01*
X194701Y481044D01*
X195227Y481956D01*
X195500Y482973D01*
Y484027D01*
X195227Y485044D01*
X194701Y485956D01*
X193956Y486701D01*
X193044Y487227D01*
X192027Y487500D01*
D02*
G37*
G36*
X217500Y482500D02*
X214000D01*
Y479000D01*
X214027D01*
X215044Y479273D01*
X215956Y479799D01*
X216701Y480544D01*
X217227Y481456D01*
X217500Y482473D01*
Y482500D01*
D02*
G37*
G36*
X213000D02*
X209500D01*
Y482473D01*
X209773Y481456D01*
X210299Y480544D01*
X211044Y479799D01*
X211956Y479273D01*
X212973Y479000D01*
X213000D01*
Y482500D01*
D02*
G37*
G36*
X147453Y485453D02*
X139547D01*
Y477547D01*
X147453D01*
Y485453D01*
D02*
G37*
G36*
X192027Y477500D02*
X192000D01*
Y474000D01*
X195500D01*
Y474027D01*
X195227Y475044D01*
X194701Y475956D01*
X193956Y476701D01*
X193044Y477227D01*
X192027Y477500D01*
D02*
G37*
G36*
X191000D02*
X190973D01*
X189956Y477227D01*
X189044Y476701D01*
X188299Y475956D01*
X187773Y475044D01*
X187500Y474027D01*
Y474000D01*
X191000D01*
Y477500D01*
D02*
G37*
G36*
X195500Y473000D02*
X192000D01*
Y469500D01*
X192027D01*
X193044Y469773D01*
X193956Y470299D01*
X194701Y471044D01*
X195227Y471956D01*
X195500Y472973D01*
Y473000D01*
D02*
G37*
G36*
X191000D02*
X187500D01*
Y472973D01*
X187773Y471956D01*
X188299Y471044D01*
X189044Y470299D01*
X189956Y469773D01*
X190973Y469500D01*
X191000D01*
Y473000D01*
D02*
G37*
G36*
X116943Y471177D02*
X116057D01*
X115202Y470948D01*
X114436Y470505D01*
X113810Y469879D01*
X113367Y469113D01*
X113138Y468258D01*
Y467372D01*
X113367Y466517D01*
X113810Y465751D01*
X114436Y465125D01*
X115202Y464682D01*
X116057Y464453D01*
X116943D01*
X117798Y464682D01*
X118564Y465125D01*
X119190Y465751D01*
X119633Y466517D01*
X119862Y467372D01*
Y468258D01*
X119633Y469113D01*
X119190Y469879D01*
X118564Y470505D01*
X117798Y470948D01*
X116943Y471177D01*
D02*
G37*
G36*
X235000Y467000D02*
X234908D01*
X233763Y466693D01*
X232737Y466101D01*
X231899Y465263D01*
X231307Y464237D01*
X231000Y463092D01*
Y463000D01*
X235000D01*
Y467000D01*
D02*
G37*
G36*
Y462000D02*
X231000D01*
Y461908D01*
X231307Y460763D01*
X231899Y459737D01*
X232737Y458899D01*
X233763Y458307D01*
X234908Y458000D01*
X235000D01*
Y462000D01*
D02*
G37*
G36*
X131000Y450847D02*
Y448000D01*
X133847D01*
X133633Y448798D01*
X133190Y449564D01*
X132564Y450190D01*
X131798Y450633D01*
X131000Y450847D01*
D02*
G37*
G36*
X130000D02*
X129202Y450633D01*
X128436Y450190D01*
X127810Y449564D01*
X127367Y448798D01*
X127153Y448000D01*
X130000D01*
Y450847D01*
D02*
G37*
G36*
X133847Y447000D02*
X131000D01*
Y444153D01*
X131798Y444367D01*
X132564Y444810D01*
X133190Y445436D01*
X133633Y446202D01*
X133847Y447000D01*
D02*
G37*
G36*
X235000D02*
X234908D01*
X233763Y446693D01*
X232737Y446101D01*
X231899Y445263D01*
X231307Y444237D01*
X231000Y443092D01*
Y443000D01*
X235000D01*
Y447000D01*
D02*
G37*
G36*
Y442000D02*
X231000D01*
Y441908D01*
X231307Y440763D01*
X231899Y439737D01*
X232737Y438899D01*
X233763Y438307D01*
X234908Y438000D01*
X235000D01*
Y442000D01*
D02*
G37*
G36*
X191527Y430000D02*
X190473D01*
X189456Y429727D01*
X188544Y429201D01*
X187799Y428456D01*
X187273Y427544D01*
X187000Y426527D01*
Y425473D01*
X187273Y424456D01*
X187799Y423544D01*
X188544Y422799D01*
X189456Y422273D01*
X190473Y422000D01*
X191527D01*
X192544Y422273D01*
X193456Y422799D01*
X194201Y423544D01*
X194727Y424456D01*
X195000Y425473D01*
Y426527D01*
X194727Y427544D01*
X194201Y428456D01*
X193456Y429201D01*
X192544Y429727D01*
X191527Y430000D01*
D02*
G37*
G36*
X174020Y425453D02*
X174000D01*
Y422000D01*
X177453D01*
Y422020D01*
X177183Y423026D01*
X176663Y423927D01*
X175927Y424663D01*
X175026Y425183D01*
X174020Y425453D01*
D02*
G37*
G36*
X173000D02*
X172980D01*
X171974Y425183D01*
X171073Y424663D01*
X170337Y423927D01*
X169817Y423026D01*
X169547Y422020D01*
Y422000D01*
X173000D01*
Y425453D01*
D02*
G37*
G36*
X177453Y421000D02*
X174000D01*
Y417547D01*
X174020D01*
X175026Y417817D01*
X175927Y418337D01*
X176663Y419073D01*
X177183Y419974D01*
X177453Y420980D01*
Y421000D01*
D02*
G37*
G36*
X173000D02*
X169547D01*
Y420980D01*
X169817Y419974D01*
X170337Y419073D01*
X171073Y418337D01*
X171974Y417817D01*
X172980Y417547D01*
X173000D01*
Y421000D01*
D02*
G37*
G36*
X191527Y420000D02*
X191500D01*
Y416500D01*
X195000D01*
Y416527D01*
X194727Y417544D01*
X194201Y418456D01*
X193456Y419201D01*
X192544Y419727D01*
X191527Y420000D01*
D02*
G37*
G36*
X190500D02*
X190473D01*
X189456Y419727D01*
X188544Y419201D01*
X187799Y418456D01*
X187273Y417544D01*
X187000Y416527D01*
Y416500D01*
X190500D01*
Y420000D01*
D02*
G37*
G36*
X233000Y415847D02*
Y413000D01*
X235847D01*
X235633Y413798D01*
X235190Y414564D01*
X234564Y415190D01*
X233798Y415633D01*
X233000Y415847D01*
D02*
G37*
G36*
X232000D02*
X231202Y415633D01*
X230436Y415190D01*
X229810Y414564D01*
X229367Y413798D01*
X229153Y413000D01*
X232000D01*
Y415847D01*
D02*
G37*
G36*
X195000Y415500D02*
X191500D01*
Y412000D01*
X191527D01*
X192544Y412273D01*
X193456Y412799D01*
X194201Y413544D01*
X194727Y414456D01*
X195000Y415473D01*
Y415500D01*
D02*
G37*
G36*
X190500D02*
X187000D01*
Y415473D01*
X187273Y414456D01*
X187799Y413544D01*
X188544Y412799D01*
X189456Y412273D01*
X190473Y412000D01*
X190500D01*
Y415500D01*
D02*
G37*
G36*
X235847Y412000D02*
X233000D01*
Y409153D01*
X233798Y409367D01*
X234564Y409810D01*
X235190Y410436D01*
X235633Y411202D01*
X235847Y412000D01*
D02*
G37*
G36*
X232000D02*
X229153D01*
X229367Y411202D01*
X229810Y410436D01*
X230436Y409810D01*
X231202Y409367D01*
X232000Y409153D01*
Y412000D01*
D02*
G37*
G36*
X224943Y415862D02*
X224057D01*
X223202Y415633D01*
X222436Y415190D01*
X221810Y414564D01*
X221795Y414539D01*
X213000D01*
X212220Y414384D01*
X211558Y413942D01*
X207058Y409442D01*
X206616Y408780D01*
X206461Y408000D01*
Y400160D01*
X206194Y400005D01*
X205494Y399306D01*
X205000Y398450D01*
X204744Y397495D01*
Y396505D01*
X204824Y396208D01*
X202455Y393839D01*
X193358D01*
X193151Y394339D01*
X193506Y394694D01*
X194000Y395550D01*
X194256Y396506D01*
Y397495D01*
X194000Y398450D01*
X193506Y399306D01*
X192806Y400005D01*
X191950Y400500D01*
X190995Y400756D01*
X190006D01*
X189050Y400500D01*
X188194Y400005D01*
X187495Y399306D01*
X187000Y398450D01*
X186744Y397495D01*
Y396506D01*
X187000Y395550D01*
X187495Y394694D01*
X187849Y394339D01*
X187642Y393839D01*
X184045D01*
X177337Y400547D01*
X177453Y400980D01*
Y402020D01*
X177183Y403026D01*
X176663Y403927D01*
X175927Y404663D01*
X175026Y405183D01*
X174020Y405453D01*
X172980D01*
X171974Y405183D01*
X171073Y404663D01*
X170337Y403927D01*
X169817Y403026D01*
X169547Y402020D01*
Y400980D01*
X169817Y399974D01*
X170337Y399073D01*
X171073Y398337D01*
X171974Y397817D01*
X172980Y397547D01*
X174020D01*
X174453Y397663D01*
X181758Y390358D01*
X182420Y389916D01*
X183200Y389761D01*
X203300D01*
X204080Y389916D01*
X204742Y390358D01*
X207708Y393324D01*
X208005Y393244D01*
X208995D01*
X209950Y393500D01*
X210806Y393994D01*
X211506Y394694D01*
X212000Y395550D01*
X212256Y396505D01*
Y397495D01*
X212000Y398450D01*
X211506Y399306D01*
X210806Y400005D01*
X210539Y400160D01*
Y407155D01*
X213845Y410461D01*
X221795D01*
X221810Y410436D01*
X222436Y409810D01*
X223202Y409367D01*
X224057Y409138D01*
X224943D01*
X225798Y409367D01*
X226564Y409810D01*
X227190Y410436D01*
X227633Y411202D01*
X227862Y412057D01*
Y412943D01*
X227633Y413798D01*
X227190Y414564D01*
X226564Y415190D01*
X225798Y415633D01*
X224943Y415862D01*
D02*
G37*
G36*
X174020Y415453D02*
X172980D01*
X171974Y415183D01*
X171073Y414663D01*
X170337Y413927D01*
X169817Y413026D01*
X169547Y412020D01*
Y410980D01*
X169817Y409974D01*
X170337Y409073D01*
X171073Y408337D01*
X171974Y407817D01*
X172980Y407547D01*
X174020D01*
X175026Y407817D01*
X175927Y408337D01*
X176663Y409073D01*
X177183Y409974D01*
X177453Y410980D01*
Y412020D01*
X177183Y413026D01*
X176663Y413927D01*
X175927Y414663D01*
X175026Y415183D01*
X174020Y415453D01*
D02*
G37*
G36*
X147453Y411000D02*
X144000D01*
Y407547D01*
X144020D01*
X145026Y407817D01*
X145927Y408337D01*
X146663Y409073D01*
X147183Y409974D01*
X147453Y410980D01*
Y411000D01*
D02*
G37*
G36*
X143000D02*
X139547D01*
Y410980D01*
X139817Y409974D01*
X140337Y409073D01*
X141073Y408337D01*
X141974Y407817D01*
X142980Y407547D01*
X143000D01*
Y411000D01*
D02*
G37*
G36*
X174020Y395453D02*
X172980D01*
X171974Y395183D01*
X171073Y394663D01*
X170337Y393927D01*
X169817Y393026D01*
X169547Y392020D01*
Y390980D01*
X169817Y389974D01*
X170337Y389073D01*
X171073Y388337D01*
X171974Y387817D01*
X172980Y387547D01*
X174020D01*
X175026Y387817D01*
X175927Y388337D01*
X176663Y389073D01*
X177183Y389974D01*
X177453Y390980D01*
Y392020D01*
X177183Y393026D01*
X176663Y393927D01*
X175927Y394663D01*
X175026Y395183D01*
X174020Y395453D01*
D02*
G37*
G36*
X126847Y396134D02*
X120153D01*
Y389441D01*
X126847D01*
Y390748D01*
X131955D01*
X132645Y390058D01*
X133307Y389616D01*
X134087Y389461D01*
X140113D01*
X140337Y389073D01*
X141073Y388337D01*
X141974Y387817D01*
X142980Y387547D01*
X144020D01*
X145026Y387817D01*
X145927Y388337D01*
X146663Y389073D01*
X147183Y389974D01*
X147453Y390980D01*
Y392020D01*
X147183Y393026D01*
X146663Y393927D01*
X145927Y394663D01*
X145026Y395183D01*
X144020Y395453D01*
X142980D01*
X141974Y395183D01*
X141073Y394663D01*
X140337Y393927D01*
X140113Y393539D01*
X134932D01*
X134242Y394229D01*
X133580Y394671D01*
X132800Y394827D01*
X126847D01*
Y396134D01*
D02*
G37*
G36*
X174020Y385453D02*
X172980D01*
X171974Y385183D01*
X171073Y384663D01*
X170337Y383927D01*
X169817Y383026D01*
X169547Y382020D01*
Y380980D01*
X169817Y379974D01*
X170337Y379073D01*
X171073Y378337D01*
X171974Y377817D01*
X172980Y377547D01*
X174020D01*
X175026Y377817D01*
X175927Y378337D01*
X176663Y379073D01*
X177183Y379974D01*
X177453Y380980D01*
Y382020D01*
X177183Y383026D01*
X176663Y383927D01*
X175927Y384663D01*
X175026Y385183D01*
X174020Y385453D01*
D02*
G37*
G36*
X144020D02*
X142980D01*
X141974Y385183D01*
X141073Y384663D01*
X140337Y383927D01*
X139817Y383026D01*
X139547Y382020D01*
Y380980D01*
X139817Y379974D01*
X140337Y379073D01*
X141073Y378337D01*
X141974Y377817D01*
X142980Y377547D01*
X144020D01*
X145026Y377817D01*
X145927Y378337D01*
X146663Y379073D01*
X147183Y379974D01*
X147453Y380980D01*
Y382020D01*
X147183Y383026D01*
X146663Y383927D01*
X145927Y384663D01*
X145026Y385183D01*
X144020Y385453D01*
D02*
G37*
G36*
X232072Y383846D02*
X230928D01*
X229822Y383550D01*
X228831Y382978D01*
X228022Y382169D01*
X227450Y381178D01*
X227153Y380072D01*
Y378928D01*
X227450Y377822D01*
X228022Y376831D01*
X228831Y376022D01*
X229822Y375450D01*
X230928Y375153D01*
X232072D01*
X233178Y375450D01*
X234169Y376022D01*
X234978Y376831D01*
X235550Y377822D01*
X235846Y378928D01*
Y380072D01*
X235550Y381178D01*
X234978Y382169D01*
X234169Y382978D01*
X233178Y383550D01*
X232072Y383846D01*
D02*
G37*
G36*
Y373847D02*
X232000D01*
Y370000D01*
X235846D01*
Y370072D01*
X235550Y371178D01*
X234978Y372169D01*
X234169Y372978D01*
X233178Y373550D01*
X232072Y373847D01*
D02*
G37*
G36*
X231000D02*
X230928D01*
X229822Y373550D01*
X228831Y372978D01*
X228022Y372169D01*
X227450Y371178D01*
X227153Y370072D01*
Y370000D01*
X231000D01*
Y373847D01*
D02*
G37*
G36*
X174020Y375453D02*
X172980D01*
X171974Y375183D01*
X171073Y374663D01*
X170337Y373927D01*
X169817Y373026D01*
X169547Y372020D01*
Y370980D01*
X169817Y369974D01*
X170337Y369073D01*
X171073Y368337D01*
X171974Y367817D01*
X172980Y367547D01*
X174020D01*
X175026Y367817D01*
X175927Y368337D01*
X176663Y369073D01*
X177183Y369974D01*
X177453Y370980D01*
Y372020D01*
X177183Y373026D01*
X176663Y373927D01*
X175927Y374663D01*
X175026Y375183D01*
X174020Y375453D01*
D02*
G37*
G36*
X144020D02*
X142980D01*
X141974Y375183D01*
X141073Y374663D01*
X140337Y373927D01*
X139817Y373026D01*
X139547Y372020D01*
Y370980D01*
X139817Y369974D01*
X140337Y369073D01*
X141073Y368337D01*
X141974Y367817D01*
X142980Y367547D01*
X144020D01*
X145026Y367817D01*
X145927Y368337D01*
X146663Y369073D01*
X147183Y369974D01*
X147453Y370980D01*
Y372020D01*
X147183Y373026D01*
X146663Y373927D01*
X145927Y374663D01*
X145026Y375183D01*
X144020Y375453D01*
D02*
G37*
G36*
X235846Y369000D02*
X232000D01*
Y365154D01*
X232072D01*
X233178Y365450D01*
X234169Y366022D01*
X234978Y366831D01*
X235550Y367822D01*
X235846Y368928D01*
Y369000D01*
D02*
G37*
G36*
X231000D02*
X227153D01*
Y368928D01*
X227450Y367822D01*
X228022Y366831D01*
X228831Y366022D01*
X229822Y365450D01*
X230928Y365154D01*
X231000D01*
Y369000D01*
D02*
G37*
G36*
X174020Y365453D02*
X172980D01*
X171974Y365183D01*
X171073Y364663D01*
X170337Y363927D01*
X169817Y363026D01*
X169547Y362020D01*
Y360980D01*
X169817Y359974D01*
X170337Y359073D01*
X170409Y359001D01*
X170218Y358539D01*
X146783D01*
X146591Y359001D01*
X146663Y359073D01*
X147183Y359974D01*
X147453Y360980D01*
Y362020D01*
X147183Y363026D01*
X146663Y363927D01*
X145927Y364663D01*
X145026Y365183D01*
X144020Y365453D01*
X142980D01*
X141974Y365183D01*
X141073Y364663D01*
X140337Y363927D01*
X139817Y363026D01*
X139547Y362020D01*
Y360980D01*
X139817Y359974D01*
X140337Y359073D01*
X140409Y359001D01*
X140217Y358539D01*
X134400D01*
X134400Y358539D01*
X133620Y358384D01*
X133104Y358039D01*
X131441D01*
X131201Y358456D01*
X130456Y359201D01*
X129544Y359727D01*
X128527Y360000D01*
X127473D01*
X126456Y359727D01*
X125544Y359201D01*
X124799Y358456D01*
X124273Y357544D01*
X124000Y356527D01*
Y355473D01*
X124273Y354456D01*
X124799Y353544D01*
X125544Y352799D01*
X126456Y352273D01*
X127473Y352000D01*
X128527D01*
X129544Y352273D01*
X130456Y352799D01*
X131201Y353544D01*
X131441Y353961D01*
X133900D01*
X134680Y354116D01*
X135196Y354461D01*
X140217D01*
X140409Y353999D01*
X140337Y353927D01*
X139817Y353026D01*
X139547Y352020D01*
Y350980D01*
X139817Y349974D01*
X140337Y349073D01*
X141073Y348337D01*
X141974Y347817D01*
X142980Y347547D01*
X144020D01*
X145026Y347817D01*
X145927Y348337D01*
X146663Y349073D01*
X147183Y349974D01*
X147453Y350980D01*
Y352020D01*
X147183Y353026D01*
X146663Y353927D01*
X146591Y353999D01*
X146783Y354461D01*
X170218D01*
X170409Y353999D01*
X170337Y353927D01*
X169817Y353026D01*
X169547Y352020D01*
Y350980D01*
X169817Y349974D01*
X170337Y349073D01*
X171073Y348337D01*
X171974Y347817D01*
X172980Y347547D01*
X174020D01*
X175026Y347817D01*
X175927Y348337D01*
X176663Y349073D01*
X177183Y349974D01*
X177453Y350980D01*
Y352020D01*
X177183Y353026D01*
X176663Y353927D01*
X176591Y353999D01*
X176783Y354461D01*
X182100D01*
X182880Y354616D01*
X183542Y355058D01*
X185945Y357461D01*
X227153D01*
Y355153D01*
X235846D01*
Y363846D01*
X227153D01*
Y361539D01*
X185100D01*
X184320Y361384D01*
X183658Y360942D01*
X181255Y358539D01*
X176783D01*
X176591Y359001D01*
X176663Y359073D01*
X177183Y359974D01*
X177453Y360980D01*
Y362020D01*
X177183Y363026D01*
X176663Y363927D01*
X175927Y364663D01*
X175026Y365183D01*
X174020Y365453D01*
D02*
G37*
G36*
X118527Y360000D02*
X118500D01*
Y356500D01*
X122000D01*
Y356527D01*
X121727Y357544D01*
X121201Y358456D01*
X120456Y359201D01*
X119544Y359727D01*
X118527Y360000D01*
D02*
G37*
G36*
X117500D02*
X117473D01*
X116456Y359727D01*
X115544Y359201D01*
X114799Y358456D01*
X114273Y357544D01*
X114000Y356527D01*
Y356500D01*
X117500D01*
Y360000D01*
D02*
G37*
G36*
X122000Y355500D02*
X118500D01*
Y352000D01*
X118527D01*
X119544Y352273D01*
X120456Y352799D01*
X121201Y353544D01*
X121727Y354456D01*
X122000Y355473D01*
Y355500D01*
D02*
G37*
G36*
X117500D02*
X114000D01*
Y355473D01*
X114273Y354456D01*
X114799Y353544D01*
X115544Y352799D01*
X116456Y352273D01*
X117473Y352000D01*
X117500D01*
Y355500D01*
D02*
G37*
G36*
X190995Y354823D02*
X190006D01*
X189050Y354567D01*
X188194Y354072D01*
X187495Y353373D01*
X187000Y352517D01*
X186744Y351561D01*
Y350572D01*
X187000Y349617D01*
X187495Y348761D01*
X188194Y348061D01*
X189050Y347567D01*
X190006Y347311D01*
X190995D01*
X191950Y347567D01*
X192806Y348061D01*
X193506Y348761D01*
X194000Y349617D01*
X194256Y350572D01*
Y351561D01*
X194000Y352517D01*
X193506Y353373D01*
X192806Y354072D01*
X191950Y354567D01*
X190995Y354823D01*
D02*
G37*
G36*
X208995Y354823D02*
X208005D01*
X207050Y354567D01*
X206194Y354072D01*
X205494Y353373D01*
X205000Y352517D01*
X204744Y351561D01*
Y350572D01*
X205000Y349617D01*
X205494Y348761D01*
X206194Y348061D01*
X207050Y347567D01*
X208005Y347311D01*
X208995D01*
X209950Y347567D01*
X210806Y348061D01*
X211506Y348761D01*
X212000Y349617D01*
X212256Y350572D01*
Y351561D01*
X212000Y352517D01*
X211506Y353373D01*
X210806Y354072D01*
X209950Y354567D01*
X208995Y354823D01*
D02*
G37*
%LPD*%
D26*
X183300Y491300D02*
X236000D01*
X203300Y391800D02*
X208500Y397000D01*
X183200Y391800D02*
X203300D01*
X173500Y401500D02*
X183200Y391800D01*
X122500Y447500D02*
X133500Y436500D01*
X177700D01*
X182200Y441000D01*
X227000D01*
X235500Y432500D01*
X143500Y451500D02*
X148500Y456500D01*
X197000D01*
X213500Y473000D01*
X191000Y436000D02*
X201000Y426000D01*
X239000D01*
X241000Y428000D01*
Y486300D01*
X236000Y491300D02*
X241000Y486300D01*
X173500Y481500D02*
X183300Y491300D01*
X188500Y466500D02*
X191500Y463500D01*
X138500Y466500D02*
X188500D01*
X123900Y451900D02*
X138500Y466500D01*
X120000Y451900D02*
X123900D01*
X118100Y450000D02*
X120000Y451900D01*
X118100Y422400D02*
Y450000D01*
Y422400D02*
X124000Y416500D01*
X158500D01*
X173500Y431500D01*
X213000Y412500D02*
X224500D01*
X208500Y408000D02*
X213000Y412500D01*
X208500Y397000D02*
Y408000D01*
X213500Y463000D02*
X228500Y478000D01*
X231000D01*
X235500Y482500D01*
X134000Y401500D02*
X143500D01*
X123500Y412000D02*
X134000Y401500D01*
X185100Y359500D02*
X231500D01*
X182100Y356500D02*
X185100Y359500D01*
X134400Y356500D02*
X182100D01*
X133900Y356000D02*
X134400Y356500D01*
X128000Y356000D02*
X133900D01*
X134087Y391500D02*
X143500D01*
X132800Y392787D02*
X134087Y391500D01*
X123500Y392787D02*
X132800D01*
D27*
X123500Y412000D02*
D03*
D28*
Y392787D02*
D03*
D29*
X191000Y436000D02*
D03*
Y446000D02*
D03*
Y426000D02*
D03*
Y416000D02*
D03*
X128000Y356000D02*
D03*
X118000D02*
D03*
X191500Y463500D02*
D03*
Y473500D02*
D03*
Y483500D02*
D03*
X213500Y483000D02*
D03*
Y473000D02*
D03*
Y463000D02*
D03*
D30*
X231500Y379500D02*
D03*
Y369500D02*
D03*
D31*
Y359500D02*
D03*
D32*
X235500Y482500D02*
D03*
Y432500D02*
D03*
Y472500D02*
D03*
Y462500D02*
D03*
Y442500D02*
D03*
Y452500D02*
D03*
D33*
X190500Y397000D02*
D03*
Y351067D02*
D03*
X208500Y397000D02*
D03*
Y351067D02*
D03*
D34*
X173500Y351500D02*
D03*
Y361500D02*
D03*
Y371500D02*
D03*
Y381500D02*
D03*
Y391500D02*
D03*
Y401500D02*
D03*
Y411500D02*
D03*
Y421500D02*
D03*
Y431500D02*
D03*
Y441500D02*
D03*
Y451500D02*
D03*
Y461500D02*
D03*
Y471500D02*
D03*
Y481500D02*
D03*
X143500Y351500D02*
D03*
Y361500D02*
D03*
Y371500D02*
D03*
Y381500D02*
D03*
Y391500D02*
D03*
Y401500D02*
D03*
Y411500D02*
D03*
Y421500D02*
D03*
Y431500D02*
D03*
Y441500D02*
D03*
Y451500D02*
D03*
Y461500D02*
D03*
Y471500D02*
D03*
D35*
Y481500D02*
D03*
D36*
X134000Y468815D02*
D03*
Y488500D02*
D03*
X116500Y467815D02*
D03*
Y487500D02*
D03*
X224500Y412500D02*
D03*
X232500D02*
D03*
X122500Y447500D02*
D03*
X130500D02*
D03*
M02*
